<?xml version="1.0" encoding="UTF-8" standalone="no"?>
<!-- Created with Inkscape (http://www.inkscape.org/) -->

<svg
   xmlns:dc="http://purl.org/dc/elements/1.1/"
   xmlns:cc="http://creativecommons.org/ns#"
   xmlns:rdf="http://www.w3.org/1999/02/22-rdf-syntax-ns#"
   xmlns:svg="http://www.w3.org/2000/svg"
   xmlns="http://www.w3.org/2000/svg"
   xmlns:sodipodi="http://sodipodi.sourceforge.net/DTD/sodipodi-0.dtd"
   xmlns:inkscape="http://www.inkscape.org/namespaces/inkscape"
   width="16px"
   height="16px"
   id="svg2985"
   version="1.1"
   inkscape:version="0.48.3.1 r9886"
   inkscape:export-filename="/home/rasmuserik/Desktop/t.png"
   inkscape:export-xdpi="90"
   inkscape:export-ydpi="90"
   sodipodi:docname="New document 2">
  <defs
     id="defs2987">
    <inkscape:path-effect
       effect="spiro"
       id="path-effect3874"
       is_visible="true" />
    <inkscape:path-effect
       effect="bend_path"
       id="path-effect3872"
       is_visible="true"
       bendpath="M -7,7 0,7"
       prop_scale="0"
       scale_y_rel="false"
       vertical="false" />
    <inkscape:path-effect
       effect="spiro"
       id="path-effect3053"
       is_visible="true" />
  </defs>
  <sodipodi:namedview
     id="base"
     pagecolor="#ffffff"
     bordercolor="#666666"
     borderopacity="1.0"
     inkscape:pageopacity="0.0"
     inkscape:pageshadow="2"
     inkscape:zoom="36"
     inkscape:cx="8.6388889"
     inkscape:cy="8"
     inkscape:current-layer="layer1"
     showgrid="true"
     inkscape:grid-bbox="true"
     inkscape:document-units="px"
     inkscape:snap-global="true"
     inkscape:snap-to-guides="false"
     inkscape:snap-grids="true"
     showguides="false"
     inkscape:window-width="1335"
     inkscape:window-height="747"
     inkscape:window-x="28"
     inkscape:window-y="18"
     inkscape:window-maximized="0">
    <inkscape:grid
       type="xygrid"
       id="grid2999"
       empspacing="4"
       visible="true"
       enabled="true"
       snapvisiblegridlinesonly="true"
       spacingx="0.25px"
       spacingy="0.25px" />
  </sodipodi:namedview>
  <metadata
     id="metadata2990">
    <rdf:RDF>
      <cc:Work
         rdf:about="">
        <dc:format>image/svg+xml</dc:format>
        <dc:type
           rdf:resource="http://purl.org/dc/dcmitype/StillImage" />
        <dc:title></dc:title>
      </cc:Work>
    </rdf:RDF>
  </metadata>
  <g
     id="layer1"
     inkscape:label="Layer 1"
     inkscape:groupmode="layer">
    <path
       sodipodi:type="arc"
       style="fill:#000000"
       id="path3045"
       sodipodi:cx="10.5"
       sodipodi:cy="6.5"
       sodipodi:rx="0.5"
       sodipodi:ry="0.5"
       d="m 11,6.5 a 0.5,0.5 0 1 1 -1,0 0.5,0.5 0 1 1 1,0 z"
       transform="matrix(1.4,0,0,1.4,-4.2,-2.6)" />
    <g
       id="g4156">
      <g
         id="g3929">
        <path
           sodipodi:type="arc"
           style="fill:#000000"
           id="path3003"
           sodipodi:cx="8"
           sodipodi:cy="8"
           sodipodi:rx="6"
           sodipodi:ry="6"
           d="M 14,8 A 6,6 0 1 1 2,8 6,6 0 1 1 14,8 z" />
        <g
           id="g3919">
          <path
             sodipodi:nodetypes="cc"
             inkscape:connector-curvature="0"
             id="path3876"
             d="m 4.5,9.5 c 1.5,2.75 5.5,2.75 7,0"
             style="fill:none;stroke:#ffffff;stroke-width:1px;stroke-linecap:round;stroke-linejoin:miter;stroke-opacity:1" />
          <g
             id="g3911">
            <g
               id="g3903">
              <path
                 transform="matrix(0.93333333,0,0,0.93333333,0.36666668,1.3666667)"
                 d="M 7,5.5 C 7,6.3284271 6.3284271,7 5.5,7 4.6715729,7 4,6.3284271 4,5.5 4,4.6715729 4.6715729,4 5.5,4 6.3284271,4 7,4.6715729 7,5.5 z"
                 sodipodi:ry="1.5"
                 sodipodi:rx="1.5"
                 sodipodi:cy="5.5"
                 sodipodi:cx="5.5"
                 id="path3005"
                 style="fill:#ffffff"
                 sodipodi:type="arc" />
              <path
                 transform="matrix(1.6,0,0,1.6,-3.3,-2.3)"
                 d="M 6,5.5 C 6,5.7761424 5.7761424,6 5.5,6 5.2238576,6 5,5.7761424 5,5.5 5,5.2238576 5.2238576,5 5.5,5 5.7761424,5 6,5.2238576 6,5.5 z"
                 sodipodi:ry="0.5"
                 sodipodi:rx="0.5"
                 sodipodi:cy="5.5"
                 sodipodi:cx="5.5"
                 id="path3009"
                 style="fill:#000000"
                 sodipodi:type="arc" />
            </g>
            <g
               id="g3899"
               transform="translate(3.2222222,-1.0000001e-8)">
              <path
                 transform="matrix(0.93333333,0,0,0.93333333,2.1444445,1.3666667)"
                 d="M 7,5.5 C 7,6.3284271 6.3284271,7 5.5,7 4.6715729,7 4,6.3284271 4,5.5 4,4.6715729 4.6715729,4 5.5,4 6.3284271,4 7,4.6715729 7,5.5 z"
                 sodipodi:ry="1.5"
                 sodipodi:rx="1.5"
                 sodipodi:cy="5.5"
                 sodipodi:cx="5.5"
                 id="path3005-2"
                 style="fill:#ffffff"
                 sodipodi:type="arc" />
              <path
                 transform="matrix(1.6,0,0,1.6,-1.5222222,-2.3)"
                 d="M 6,5.5 C 6,5.7761424 5.7761424,6 5.5,6 5.2238576,6 5,5.7761424 5,5.5 5,5.2238576 5.2238576,5 5.5,5 5.7761424,5 6,5.2238576 6,5.5 z"
                 sodipodi:ry="0.5"
                 sodipodi:rx="0.5"
                 sodipodi:cy="5.5"
                 sodipodi:cx="5.5"
                 id="path3009-0"
                 style="fill:#000000"
                 sodipodi:type="arc" />
            </g>
          </g>
        </g>
      </g>
      <g
         id="g4136">
        <g
           id="g4100">
          <path
             inkscape:connector-curvature="0"
             id="path3941"
             d="m 2.5,2.5 -2,-2 0,0"
             style="fill:none;stroke:#000000;stroke-width:1px;stroke-linecap:round;stroke-linejoin:round;stroke-opacity:1" />
          <path
             inkscape:connector-curvature="0"
             id="path3941-6"
             d="m 15.5,15.5 -2,-2 0,0"
             style="fill:none;stroke:#000000;stroke-width:1px;stroke-linecap:round;stroke-linejoin:round;stroke-opacity:1" />
          <path
             inkscape:connector-curvature="0"
             id="path3941-3"
             d="m 15.5,0.5 -2,2 0,0"
             style="fill:none;stroke:#000000;stroke-width:1px;stroke-linecap:round;stroke-linejoin:round;stroke-opacity:1" />
          <path
             inkscape:connector-curvature="0"
             id="path3941-3-5"
             d="m 2.5,13.5 -2,2 0,0"
             style="fill:none;stroke:#000000;stroke-width:1px;stroke-linecap:round;stroke-linejoin:round;stroke-opacity:1" />
        </g>
        <g
           id="g4122">
          <g
             id="g4114">
            <path
               sodipodi:type="arc"
               style="fill:#000000;stroke:none;fill-opacity:1"
               id="path4009"
               sodipodi:cx="0.5"
               sodipodi:cy="6.5"
               sodipodi:rx="0.5"
               sodipodi:ry="0.5"
               d="m 1,6.5 a 0.5,0.5 0 1 1 -1,0 0.5,0.5 0 1 1 1,0 z"
               transform="translate(0,-1)" />
            <path
               sodipodi:type="arc"
               style="fill:#000000;fill-opacity:1;stroke:none"
               id="path4009-8"
               sodipodi:cx="0.5"
               sodipodi:cy="6.5"
               sodipodi:rx="0.5"
               sodipodi:ry="0.5"
               d="m 1,6.5 a 0.5,0.5 0 1 1 -1,0 0.5,0.5 0 1 1 1,0 z"
               transform="translate(0,4)" />
          </g>
          <g
             id="g4110">
            <path
               sodipodi:type="arc"
               style="fill:#000000;fill-opacity:1;stroke:none"
               id="path4009-0"
               sodipodi:cx="0.5"
               sodipodi:cy="6.5"
               sodipodi:rx="0.5"
               sodipodi:ry="0.5"
               d="m 1,6.5 a 0.5,0.5 0 1 1 -1,0 0.5,0.5 0 1 1 1,0 z"
               transform="translate(5,-6)" />
            <path
               sodipodi:type="arc"
               style="fill:#000000;fill-opacity:1;stroke:none"
               id="path4009-2"
               sodipodi:cx="0.5"
               sodipodi:cy="6.5"
               sodipodi:rx="0.5"
               sodipodi:ry="0.5"
               d="m 1,6.5 a 0.5,0.5 0 1 1 -1,0 0.5,0.5 0 1 1 1,0 z"
               transform="translate(10,-6)" />
          </g>
          <g
             id="g4106">
            <path
               sodipodi:type="arc"
               style="fill:#000000;fill-opacity:1;stroke:none"
               id="path4009-4"
               sodipodi:cx="0.5"
               sodipodi:cy="6.5"
               sodipodi:rx="0.5"
               sodipodi:ry="0.5"
               d="m 1,6.5 a 0.5,0.5 0 1 1 -1,0 0.5,0.5 0 1 1 1,0 z"
               transform="translate(15,-1)" />
            <path
               sodipodi:type="arc"
               style="fill:#000000;fill-opacity:1;stroke:none"
               id="path4009-08"
               sodipodi:cx="0.5"
               sodipodi:cy="6.5"
               sodipodi:rx="0.5"
               sodipodi:ry="0.5"
               d="m 1,6.5 a 0.5,0.5 0 1 1 -1,0 0.5,0.5 0 1 1 1,0 z"
               transform="translate(15,4)" />
          </g>
          <g
             id="g4118">
            <path
               sodipodi:type="arc"
               style="fill:#000000;fill-opacity:1;stroke:none"
               id="path4009-9"
               sodipodi:cx="0.5"
               sodipodi:cy="6.5"
               sodipodi:rx="0.5"
               sodipodi:ry="0.5"
               d="m 1,6.5 a 0.5,0.5 0 1 1 -1,0 0.5,0.5 0 1 1 1,0 z"
               transform="translate(10,9)" />
            <path
               sodipodi:type="arc"
               style="fill:#000000;fill-opacity:1;stroke:none"
               id="path4009-90"
               sodipodi:cx="0.5"
               sodipodi:cy="6.5"
               sodipodi:rx="0.5"
               sodipodi:ry="0.5"
               d="m 1,6.5 a 0.5,0.5 0 1 1 -1,0 0.5,0.5 0 1 1 1,0 z"
               transform="translate(5,9)" />
          </g>
        </g>
      </g>
    </g>
  </g>
</svg>
